<?xml version="1.0" encoding="UTF-8" standalone="no"?>
<!-- Created with Inkscape (http://www.inkscape.org/) -->
<svg
   xmlns:svg="http://www.w3.org/2000/svg"
   xmlns="http://www.w3.org/2000/svg"
   version="1.0"
   width="374"
   height="375"
   id="svg2">
  <defs
     id="defs5" />
  <rect
     width="374"
     height="375"
     x="0"
     y="0"
     id="rect2385"
     style="opacity:1;fill:#ffffff;fill-opacity:1;fill-rule:nonzero;stroke:#000000;stroke-width:0;stroke-linecap:round;stroke-linejoin:miter;stroke-miterlimit:4;stroke-dasharray:none;stroke-opacity:1" />
  <path
     d="M 8,8 L 8,367 L 366,367 L 366,8 L 8,8 z M 256,23 C 288.34975,32.289196 303.07724,64.734409 295,102 C 287.31425,137.45937 222.18407,200.57075 187,245.28125 C 154.25487,202.8066 86.371967,140.26753 78,102 C 70.420985,67.356991 79.192895,33.876637 118,23 C 142.29292,16.191316 172.09584,22.554388 187,42 C 206.62085,21.999724 230.29902,15.61999 256,23 z M 86.5625,272 L 117.28125,350.25 C 115.97249,350.25 105.81755,350.50662 100.4375,350.25 L 92.5,330 L 63.8125,330 L 55.96875,350.25 L 41.1875,350.25 C 50.199856,324.75436 62.038073,297.35857 71.5,272.03125 L 86.5625,272 z M 156.03125,272 L 184.03125,272 L 212,272 L 212,279 L 212,286 L 191.5,286 L 171,286 L 171,294.5 L 171,303 L 190,303 L 209,303 L 209,309.5 L 209,316 L 190,316 L 171,316 L 171,326 L 171,336 L 191.5,336 L 212,336 L 212,343 L 212,350 L 183.75,350 L 155.5,350 L 155.78125,311 L 156.03125,272 z M 256,272 L 275.25,272 C 299.43808,272.01361 305.87421,273.67963 313.25,281.84375 C 321.66297,291.1559 324.27568,301.93478 322.59375,319.375 C 320.42417,334.16313 310.5967,345.16115 296.03125,350 C 290.02251,350.25662 276.03124,350 276.03125,350 L 256,350 L 256,311 L 256,272 z"
     id="path3194"
     style="fill:#028736;fill-opacity:1" />
  <path
     d="M 68.98832,316.75 C 68.96421,316.71368 78.635226,289.64589 79.02422,289.69888 C 79.352404,289.74359 88.146872,316.64775 88,316.75147 C 82.525969,316.9838 73.86859,316.77787 68.98832,316.75 z"
     id="path3190"
     style="fill:#028736;fill-opacity:1" />
  <path
     d="M 272,311 L 272,285 L 286.00435,285 C 291.24667,285.28394 292.92258,284.68682 298.29986,287.8069 C 306.02709,293.13006 308.49553,307.16405 308.4229,310.56711 C 308.26241,318.08733 306.03193,328.20229 297.34563,334.869 C 294.59669,336.7261 292.76513,337 283.09563,337 L 272,337 L 272,311 z"
     id="path3184"
     style="fill:#028736;fill-opacity:1" />
  <path
     d="M 186.93122,190.6643 L 180.28213,192.66785 C 180.23482,186.90826 183.03312,143.40281 182.72214,129.80503 C 178.6601,130.244 175.06539,132.94122 171.01472,133.67781 C 170.78486,132.04995 173.3244,57.001199 173.22147,55.776252 C 183.08585,49.142706 196.26202,41.908361 206.67025,35.768488 C 203.49075,59.744611 196.82369,84.825692 194.21475,108.87783 C 195.5309,108.9281 205.82981,106.06577 207.3381,106.02268 C 206.86627,107.64033 194.06583,166.31368 194.70243,165.66431 C 195.0618,165.29773 199.13032,164.13655 199.13032,163.89779 C 198.92835,164.62697 187.24742,236.60594 186.78331,237 L 186.93122,190.6643 z"
     id="path2384"
     style="fill:#028736;fill-opacity:1" />
</svg>
